<mxfile host="app.diagrams.net" modified="2024-02-28T08:04:32.266Z" agent="Mozilla/5.0 (Windows NT 10.0; Win64; x64) AppleWebKit/537.36 (KHTML, like Gecko) Chrome/122.0.0.0 Safari/537.36" version="23.1.7" etag="3ozB8L88aHJAdppSmx0F" type="github">
  <diagram name="Page-1" id="HhxAjnts7OiZ2z-J0eUh">
    <mxGraphModel>
      <root>
        <mxCell id="0" />
        <mxCell id="1" parent="0" />
      </root>
    </mxGraphModel>
  </diagram>
</mxfile>
